<svg xmlns="http://www.w3.org/2000/svg" xmlns:xlink="http://www.w3.org/1999/xlink" width="1366" zoomAndPan="magnify" viewBox="0 0 1024.5 349.5" height="466" preserveAspectRatio="xMidYMid meet" version="1.2"><defs><clipPath id="719dad2a57"><path d="M 0.480469 0 L 1023.519531 0 L 1023.519531 349 L 0.480469 349 Z M 0.480469 0 "/></clipPath></defs><g id="47d081b6a7"><g clip-rule="nonzero" clip-path="url(#719dad2a57)"><path style=" stroke:none;fill-rule:evenodd;fill:#4d2908;fill-opacity:1;" d="M 877.042969 350.476562 L 906.246094 350.476562 L 906.246094 321.273438 L 964.652344 321.273438 L 964.652344 292.070312 L 993.855469 292.070312 L 993.855469 233.664062 L 1023.058594 233.664062 L 1023.058594 116.851562 L 993.855469 116.851562 L 993.855469 58.445312 L 964.652344 58.445312 L 964.652344 29.242188 L 906.246094 29.242188 L 906.246094 0.0390625 L 117.753906 0.0390625 L 117.753906 29.242188 L 59.347656 29.242188 L 59.347656 58.445312 L 30.144531 58.445312 L 30.144531 116.851562 L 0.941406 116.851562 L 0.941406 233.664062 L 30.144531 233.664062 L 30.144531 292.070312 L 59.347656 292.070312 L 59.347656 321.273438 L 117.753906 321.273438 L 117.753906 350.476562 Z M 877.042969 350.476562 "/></g><path style=" stroke:none;fill-rule:evenodd;fill:#e1a86b;fill-opacity:1;" d="M 877.042969 321.273438 L 906.246094 321.273438 L 906.246094 292.070312 L 964.652344 292.070312 L 964.652344 233.664062 L 993.855469 233.664062 L 993.855469 116.851562 L 964.652344 116.851562 L 964.652344 58.445312 L 906.246094 58.445312 L 906.246094 29.242188 L 117.753906 29.242188 L 117.753906 58.445312 L 59.347656 58.445312 L 59.347656 116.851562 L 30.144531 116.851562 L 30.144531 233.664062 L 59.347656 233.664062 L 59.347656 292.070312 L 117.753906 292.070312 L 117.753906 321.273438 Z M 877.042969 321.273438 "/><path style=" stroke:none;fill-rule:evenodd;fill:#b56927;fill-opacity:1;" d="M 877.042969 321.273438 L 906.246094 321.273438 L 906.246094 292.070312 L 964.652344 292.070312 L 964.652344 233.664062 L 993.855469 233.664062 L 993.855469 146.054688 L 964.652344 146.054688 L 964.652344 116.851562 L 935.449219 116.851562 L 935.449219 87.648438 L 88.550781 87.648438 L 88.550781 116.855469 L 59.347656 116.855469 L 59.347656 146.058594 L 30.144531 146.058594 L 30.144531 233.667969 L 59.347656 233.667969 L 59.347656 292.074219 L 117.753906 292.074219 L 117.753906 321.277344 L 877.042969 321.277344 Z M 877.042969 321.273438 "/><path style=" stroke:none;fill-rule:evenodd;fill:#672905;fill-opacity:1;" d="M 877.042969 321.273438 L 906.246094 321.273438 L 906.246094 292.070312 L 964.652344 292.070312 L 964.652344 233.664062 L 993.855469 233.664062 L 993.855469 175.257812 L 964.652344 175.257812 L 964.652344 233.664062 L 935.449219 233.664062 L 935.449219 262.871094 L 877.042969 262.871094 L 877.042969 292.070312 L 146.957031 292.070312 L 146.957031 262.871094 L 88.550781 262.871094 L 88.550781 233.664062 L 59.347656 233.664062 L 59.347656 175.257812 L 30.144531 175.257812 L 30.144531 233.664062 L 59.347656 233.664062 L 59.347656 292.070312 L 117.753906 292.070312 L 117.753906 321.273438 Z M 877.042969 321.273438 "/><path style=" stroke:none;fill-rule:evenodd;fill:#ffc795;fill-opacity:1;" d="M 30.144531 146.054688 L 59.347656 146.054688 L 59.347656 116.851562 L 88.550781 116.851562 L 88.550781 87.648438 L 146.957031 87.648438 L 146.957031 58.445312 L 205.367188 58.445312 L 205.367188 29.242188 L 117.753906 29.242188 L 117.753906 58.445312 L 59.347656 58.445312 L 59.347656 116.851562 L 30.144531 116.851562 Z M 30.144531 146.054688 "/></g></svg>