<svg xmlns="http://www.w3.org/2000/svg" xmlns:xlink="http://www.w3.org/1999/xlink" width="1366" zoomAndPan="magnify" viewBox="0 0 1024.5 351.75" height="469" preserveAspectRatio="xMidYMid meet" version="1.2"><defs><clipPath id="d759abe582"><path d="M 0.113281 0 L 1023.886719 0 L 1023.886719 350.75 L 0.113281 350.75 Z M 0.113281 0 "/></clipPath></defs><g id="4439382db4"><g clip-rule="nonzero" clip-path="url(#d759abe582)"><path style=" stroke:none;fill-rule:evenodd;fill:#4d2908;fill-opacity:1;" d="M 877.304688 350.730469 L 906.527344 350.730469 L 906.527344 321.503906 L 964.976562 321.503906 L 964.976562 292.28125 L 994.203125 292.28125 L 994.203125 233.832031 L 1023.425781 233.832031 L 1023.425781 116.9375 L 994.203125 116.9375 L 994.203125 58.488281 L 964.976562 58.488281 L 964.976562 29.261719 L 906.527344 29.261719 L 906.527344 0.0390625 L 117.472656 0.0390625 L 117.472656 29.261719 L 59.023438 29.261719 L 59.023438 58.488281 L 29.800781 58.488281 L 29.800781 116.9375 L 0.574219 116.9375 L 0.574219 233.832031 L 29.800781 233.832031 L 29.800781 292.28125 L 59.023438 292.28125 L 59.023438 321.503906 L 117.472656 321.503906 L 117.472656 350.730469 Z M 877.304688 350.730469 "/></g><path style=" stroke:none;fill-rule:evenodd;fill:#e1a86b;fill-opacity:1;" d="M 877.304688 321.503906 L 906.527344 321.503906 L 906.527344 292.28125 L 964.976562 292.28125 L 964.976562 233.832031 L 994.203125 233.832031 L 994.203125 116.9375 L 964.976562 116.9375 L 964.976562 58.488281 L 906.527344 58.488281 L 906.527344 29.261719 L 117.472656 29.261719 L 117.472656 58.488281 L 59.023438 58.488281 L 59.023438 116.9375 L 29.800781 116.9375 L 29.800781 233.832031 L 59.023438 233.832031 L 59.023438 292.28125 L 117.472656 292.28125 L 117.472656 321.503906 Z M 877.304688 321.503906 "/><path style=" stroke:none;fill-rule:evenodd;fill:#b56927;fill-opacity:1;" d="M 877.304688 321.503906 L 906.527344 321.503906 L 906.527344 292.28125 L 964.976562 292.28125 L 964.976562 233.832031 L 994.203125 233.832031 L 994.203125 146.160156 L 964.976562 146.160156 L 964.976562 116.9375 L 935.753906 116.9375 L 935.753906 87.714844 L 88.246094 87.714844 L 88.246094 116.9375 L 59.023438 116.9375 L 59.023438 146.164062 L 29.800781 146.164062 L 29.800781 233.835938 L 59.023438 233.835938 L 59.023438 292.285156 L 117.472656 292.285156 L 117.472656 321.507812 L 877.304688 321.507812 Z M 877.304688 321.503906 "/><path style=" stroke:none;fill-rule:evenodd;fill:#672905;fill-opacity:1;" d="M 877.304688 321.503906 L 906.527344 321.503906 L 906.527344 292.28125 L 964.976562 292.28125 L 964.976562 233.832031 L 994.203125 233.832031 L 994.203125 175.386719 L 964.976562 175.386719 L 964.976562 233.832031 L 935.753906 233.832031 L 935.753906 263.058594 L 877.304688 263.058594 L 877.304688 292.28125 L 146.695312 292.28125 L 146.695312 263.058594 L 88.246094 263.058594 L 88.246094 233.832031 L 59.023438 233.832031 L 59.023438 175.386719 L 29.800781 175.386719 L 29.800781 233.832031 L 59.023438 233.832031 L 59.023438 292.28125 L 117.472656 292.28125 L 117.472656 321.503906 Z M 877.304688 321.503906 "/><path style=" stroke:none;fill-rule:evenodd;fill:#ffc795;fill-opacity:1;" d="M 29.800781 146.160156 L 59.023438 146.160156 L 59.023438 116.9375 L 88.246094 116.9375 L 88.246094 87.714844 L 146.695312 87.714844 L 146.695312 58.488281 L 205.144531 58.488281 L 205.144531 29.261719 L 117.472656 29.261719 L 117.472656 58.488281 L 59.023438 58.488281 L 59.023438 116.9375 L 29.800781 116.9375 Z M 29.800781 146.160156 "/><g style="fill:#4d2908;fill-opacity:1;"><g transform="translate(199.21418, 207.227716)"><path style="stroke:none" d="M 15.859375 -7.9375 L 15.859375 -15.859375 L 7.9375 -15.859375 L 7.9375 -23.796875 L 0 -23.796875 L 0 -47.59375 L 7.9375 -47.59375 L 7.9375 -55.53125 L 15.859375 -55.53125 L 15.859375 -63.46875 L 47.59375 -63.46875 L 47.59375 -55.53125 L 55.53125 -55.53125 L 55.53125 -47.59375 L 39.671875 -47.59375 L 39.671875 -55.53125 L 23.796875 -55.53125 L 23.796875 -47.59375 L 15.859375 -47.59375 L 15.859375 -23.796875 L 23.796875 -23.796875 L 23.796875 -15.859375 L 39.671875 -15.859375 L 39.671875 -23.796875 L 55.53125 -23.796875 L 55.53125 -15.859375 L 47.59375 -15.859375 L 47.59375 -7.9375 Z M 15.859375 -7.9375 "/></g></g><g style="fill:#4d2908;fill-opacity:1;"><g transform="translate(269.476476, 207.227716)"><path style="stroke:none" d="M 7.9375 -7.9375 L 7.9375 -15.859375 L 0 -15.859375 L 0 -55.53125 L 7.9375 -55.53125 L 7.9375 -63.46875 L 47.59375 -63.46875 L 47.59375 -55.53125 L 55.53125 -55.53125 L 55.53125 -15.859375 L 47.59375 -15.859375 L 47.59375 -7.9375 Z M 15.859375 -15.859375 L 39.671875 -15.859375 L 39.671875 -55.53125 L 15.859375 -55.53125 Z M 15.859375 -15.859375 "/></g></g><g style="fill:#4d2908;fill-opacity:1;"><g transform="translate(339.738773, 207.227716)"><path style="stroke:none" d="M 7.9375 -7.9375 L 7.9375 -63.46875 L 23.796875 -63.46875 L 23.796875 -15.859375 L 55.53125 -15.859375 L 55.53125 -7.9375 Z M 7.9375 -7.9375 "/></g></g><g style="fill:#4d2908;fill-opacity:1;"><g transform="translate(410.00108, 207.227716)"><path style="stroke:none" d="M 0 -7.9375 L 0 -63.46875 L 55.53125 -63.46875 L 55.53125 -55.53125 L 15.859375 -55.53125 L 15.859375 -39.671875 L 47.59375 -39.671875 L 47.59375 -31.734375 L 15.859375 -31.734375 L 15.859375 -15.859375 L 55.53125 -15.859375 L 55.53125 -7.9375 Z M 0 -7.9375 "/></g></g><g style="fill:#4d2908;fill-opacity:1;"><g transform="translate(480.263365, 207.227716)"><path style="stroke:none" d="M 15.859375 -7.9375 L 15.859375 -15.859375 L 7.9375 -15.859375 L 7.9375 -23.796875 L 0 -23.796875 L 0 -47.59375 L 7.9375 -47.59375 L 7.9375 -55.53125 L 15.859375 -55.53125 L 15.859375 -63.46875 L 47.59375 -63.46875 L 47.59375 -55.53125 L 55.53125 -55.53125 L 55.53125 -47.59375 L 39.671875 -47.59375 L 39.671875 -55.53125 L 23.796875 -55.53125 L 23.796875 -47.59375 L 15.859375 -47.59375 L 15.859375 -23.796875 L 23.796875 -23.796875 L 23.796875 -15.859375 L 39.671875 -15.859375 L 39.671875 -23.796875 L 55.53125 -23.796875 L 55.53125 -15.859375 L 47.59375 -15.859375 L 47.59375 -7.9375 Z M 15.859375 -7.9375 "/></g></g><g style="fill:#4d2908;fill-opacity:1;"><g transform="translate(550.52565, 207.227716)"><path style="stroke:none" d="M 15.859375 -7.9375 L 15.859375 -15.859375 L 7.9375 -15.859375 L 7.9375 -23.796875 L 0 -23.796875 L 0 -47.59375 L 7.9375 -47.59375 L 7.9375 -55.53125 L 15.859375 -55.53125 L 15.859375 -63.46875 L 47.59375 -63.46875 L 47.59375 -55.53125 L 55.53125 -55.53125 L 55.53125 -47.59375 L 39.671875 -47.59375 L 39.671875 -55.53125 L 23.796875 -55.53125 L 23.796875 -47.59375 L 15.859375 -47.59375 L 15.859375 -23.796875 L 23.796875 -23.796875 L 23.796875 -15.859375 L 39.671875 -15.859375 L 39.671875 -23.796875 L 55.53125 -23.796875 L 55.53125 -15.859375 L 47.59375 -15.859375 L 47.59375 -7.9375 Z M 15.859375 -7.9375 "/></g></g><g style="fill:#4d2908;fill-opacity:1;"><g transform="translate(620.78798, 207.227716)"><path style="stroke:none" d="M 7.9375 -7.9375 L 7.9375 -15.859375 L 23.796875 -15.859375 L 23.796875 -55.53125 L 7.9375 -55.53125 L 7.9375 -63.46875 L 55.53125 -63.46875 L 55.53125 -55.53125 L 39.671875 -55.53125 L 39.671875 -15.859375 L 55.53125 -15.859375 L 55.53125 -7.9375 Z M 7.9375 -7.9375 "/></g></g><g style="fill:#4d2908;fill-opacity:1;"><g transform="translate(691.050265, 207.227716)"><path style="stroke:none" d="M 7.9375 -7.9375 L 7.9375 -15.859375 L 0 -15.859375 L 0 -55.53125 L 7.9375 -55.53125 L 7.9375 -63.46875 L 47.59375 -63.46875 L 47.59375 -55.53125 L 55.53125 -55.53125 L 55.53125 -15.859375 L 47.59375 -15.859375 L 47.59375 -7.9375 Z M 15.859375 -15.859375 L 39.671875 -15.859375 L 39.671875 -55.53125 L 15.859375 -55.53125 Z M 15.859375 -15.859375 "/></g></g><g style="fill:#4d2908;fill-opacity:1;"><g transform="translate(761.31255, 207.227716)"><path style="stroke:none" d="M 0 -7.9375 L 0 -63.46875 L 15.859375 -63.46875 L 15.859375 -55.53125 L 23.796875 -55.53125 L 23.796875 -47.59375 L 31.734375 -47.59375 L 31.734375 -39.671875 L 39.671875 -39.671875 L 39.671875 -63.46875 L 55.53125 -63.46875 L 55.53125 -7.9375 L 39.671875 -7.9375 L 39.671875 -23.796875 L 31.734375 -23.796875 L 31.734375 -31.734375 L 23.796875 -31.734375 L 23.796875 -39.671875 L 15.859375 -39.671875 L 15.859375 -7.9375 Z M 0 -7.9375 "/></g></g><g style="fill:#4d2908;fill-opacity:1;"><g transform="translate(658.782515, 86.963005)"><path style="stroke:none" d="M 81.734375 29.21875 L 72.109375 30.375 L 70.9375 20.75 L 80.5625 19.59375 Z M 73.28125 40.03125 L 63.640625 41.203125 L 62.46875 31.546875 L 72.109375 30.375 Z M 73.28125 40.03125 "/></g></g></g></svg>