<svg xmlns="http://www.w3.org/2000/svg" xmlns:xlink="http://www.w3.org/1999/xlink" width="1366" zoomAndPan="magnify" viewBox="0 0 1024.5 576" height="768" preserveAspectRatio="xMidYMid meet" version="1.2"><defs><clipPath id="a2836cf294"><path d="M 0 112.640625 L 1024 112.640625 L 1024 463.46875 L 0 463.46875 Z M 0 112.640625 "/></clipPath></defs><g id="c0233f112d"><g clip-rule="nonzero" clip-path="url(#a2836cf294)"><path style=" stroke:none;fill-rule:evenodd;fill:#4d2908;fill-opacity:1;" d="M 877.386719 463.449219 L 906.617188 463.449219 L 906.617188 434.21875 L 965.078125 434.21875 L 965.078125 404.988281 L 994.308594 404.988281 L 994.308594 346.527344 L 1023.539062 346.527344 L 1023.539062 229.601562 L 994.308594 229.601562 L 994.308594 171.140625 L 965.078125 171.140625 L 965.078125 141.910156 L 906.617188 141.910156 L 906.617188 112.679688 L 117.382812 112.679688 L 117.382812 141.910156 L 58.921875 141.910156 L 58.921875 171.140625 L 29.691406 171.140625 L 29.691406 229.601562 L 0.460938 229.601562 L 0.460938 346.527344 L 29.691406 346.527344 L 29.691406 404.988281 L 58.921875 404.988281 L 58.921875 434.21875 L 117.382812 434.21875 L 117.382812 463.449219 Z M 877.386719 463.449219 "/></g><path style=" stroke:none;fill-rule:evenodd;fill:#e1a86b;fill-opacity:1;" d="M 877.386719 434.21875 L 906.617188 434.21875 L 906.617188 404.988281 L 965.078125 404.988281 L 965.078125 346.527344 L 994.308594 346.527344 L 994.308594 229.601562 L 965.078125 229.601562 L 965.078125 171.140625 L 906.617188 171.140625 L 906.617188 141.910156 L 117.382812 141.910156 L 117.382812 171.140625 L 58.921875 171.140625 L 58.921875 229.601562 L 29.691406 229.601562 L 29.691406 346.527344 L 58.921875 346.527344 L 58.921875 404.988281 L 117.382812 404.988281 L 117.382812 434.21875 Z M 877.386719 434.21875 "/><path style=" stroke:none;fill-rule:evenodd;fill:#b56927;fill-opacity:1;" d="M 877.386719 434.21875 L 906.617188 434.21875 L 906.617188 404.988281 L 965.078125 404.988281 L 965.078125 346.527344 L 994.308594 346.527344 L 994.308594 258.832031 L 965.078125 258.832031 L 965.078125 229.601562 L 935.847656 229.601562 L 935.847656 200.371094 L 88.152344 200.371094 L 88.152344 229.605469 L 58.921875 229.605469 L 58.921875 258.835938 L 29.691406 258.835938 L 29.691406 346.527344 L 58.921875 346.527344 L 58.921875 404.988281 L 117.382812 404.988281 L 117.382812 434.21875 Z M 877.386719 434.21875 "/><path style=" stroke:none;fill-rule:evenodd;fill:#672905;fill-opacity:1;" d="M 877.386719 434.21875 L 906.617188 434.21875 L 906.617188 404.988281 L 965.078125 404.988281 L 965.078125 346.527344 L 994.308594 346.527344 L 994.308594 288.0625 L 965.078125 288.0625 L 965.078125 346.527344 L 935.847656 346.527344 L 935.847656 375.757812 L 877.386719 375.757812 L 877.386719 404.988281 L 146.613281 404.988281 L 146.613281 375.757812 L 88.152344 375.757812 L 88.152344 346.527344 L 58.921875 346.527344 L 58.921875 288.0625 L 29.691406 288.0625 L 29.691406 346.527344 L 58.921875 346.527344 L 58.921875 404.988281 L 117.382812 404.988281 L 117.382812 434.21875 Z M 877.386719 434.21875 "/><path style=" stroke:none;fill-rule:evenodd;fill:#ffc795;fill-opacity:1;" d="M 29.691406 258.832031 L 58.921875 258.832031 L 58.921875 229.601562 L 88.152344 229.601562 L 88.152344 200.371094 L 146.613281 200.371094 L 146.613281 171.140625 L 205.078125 171.140625 L 205.078125 141.910156 L 117.382812 141.910156 L 117.382812 171.140625 L 58.921875 171.140625 L 58.921875 229.601562 L 29.691406 229.601562 Z M 29.691406 258.832031 "/><g style="fill:#4d2908;fill-opacity:1;"><g transform="translate(166.339175, 332.978055)"><path style="stroke:none" d="M 0 -11.3125 L 0 -90.46875 L 79.15625 -90.46875 L 79.15625 -79.15625 L 22.609375 -79.15625 L 22.609375 -56.546875 L 67.84375 -56.546875 L 67.84375 -45.234375 L 22.609375 -45.234375 L 22.609375 -22.609375 L 79.15625 -22.609375 L 79.15625 -11.3125 Z M 0 -11.3125 "/></g></g><g style="fill:#4d2908;fill-opacity:1;"><g transform="translate(266.479489, 332.978055)"><path style="stroke:none" d="M 11.3125 -11.3125 L 11.3125 -22.609375 L 0 -22.609375 L 0 -33.921875 L 22.609375 -33.921875 L 22.609375 -22.609375 L 56.546875 -22.609375 L 56.546875 -45.234375 L 11.3125 -45.234375 L 11.3125 -56.546875 L 0 -56.546875 L 0 -79.15625 L 11.3125 -79.15625 L 11.3125 -90.46875 L 67.84375 -90.46875 L 67.84375 -79.15625 L 79.15625 -79.15625 L 79.15625 -67.84375 L 56.546875 -67.84375 L 56.546875 -79.15625 L 22.609375 -79.15625 L 22.609375 -56.546875 L 67.84375 -56.546875 L 67.84375 -45.234375 L 79.15625 -45.234375 L 79.15625 -22.609375 L 67.84375 -22.609375 L 67.84375 -11.3125 Z M 11.3125 -11.3125 "/></g></g><g style="fill:#4d2908;fill-opacity:1;"><g transform="translate(366.619802, 332.978055)"><path style="stroke:none" d="M 0 -11.3125 L 0 -90.46875 L 67.84375 -90.46875 L 67.84375 -79.15625 L 79.15625 -79.15625 L 79.15625 -45.234375 L 67.84375 -45.234375 L 67.84375 -33.921875 L 22.609375 -33.921875 L 22.609375 -11.3125 Z M 22.609375 -45.234375 L 56.546875 -45.234375 L 56.546875 -79.15625 L 22.609375 -79.15625 Z M 22.609375 -45.234375 "/></g></g><g style="fill:#4d2908;fill-opacity:1;"><g transform="translate(466.760127, 332.978055)"><path style="stroke:none" d="M 0 -11.3125 L 0 -67.84375 L 11.3125 -67.84375 L 11.3125 -79.15625 L 22.609375 -79.15625 L 22.609375 -90.46875 L 56.546875 -90.46875 L 56.546875 -79.15625 L 67.84375 -79.15625 L 67.84375 -67.84375 L 79.15625 -67.84375 L 79.15625 -11.3125 L 56.546875 -11.3125 L 56.546875 -33.921875 L 22.609375 -33.921875 L 22.609375 -11.3125 Z M 22.609375 -45.234375 L 56.546875 -45.234375 L 56.546875 -67.84375 L 45.234375 -67.84375 L 45.234375 -79.15625 L 33.921875 -79.15625 L 33.921875 -67.84375 L 22.609375 -67.84375 Z M 22.609375 -45.234375 "/></g></g><g style="fill:#4d2908;fill-opacity:1;"><g transform="translate(566.900428, 332.978055)"><path style="stroke:none" d="M 0 -11.3125 L 0 -90.46875 L 22.609375 -90.46875 L 22.609375 -79.15625 L 33.921875 -79.15625 L 33.921875 -67.84375 L 45.234375 -67.84375 L 45.234375 -56.546875 L 56.546875 -56.546875 L 56.546875 -90.46875 L 79.15625 -90.46875 L 79.15625 -11.3125 L 56.546875 -11.3125 L 56.546875 -33.921875 L 45.234375 -33.921875 L 45.234375 -45.234375 L 33.921875 -45.234375 L 33.921875 -56.546875 L 22.609375 -56.546875 L 22.609375 -11.3125 Z M 0 -11.3125 "/></g></g><g style="fill:#4d2908;fill-opacity:1;"><g transform="translate(667.040729, 332.978055)"><path style="stroke:none" d="M 11.3125 -11.3125 L 11.3125 -22.609375 L 0 -22.609375 L 0 -79.15625 L 11.3125 -79.15625 L 11.3125 -90.46875 L 67.84375 -90.46875 L 67.84375 -79.15625 L 79.15625 -79.15625 L 79.15625 -22.609375 L 67.84375 -22.609375 L 67.84375 -11.3125 Z M 22.609375 -22.609375 L 56.546875 -22.609375 L 56.546875 -79.15625 L 22.609375 -79.15625 Z M 22.609375 -22.609375 "/></g></g><g style="fill:#4d2908;fill-opacity:1;"><g transform="translate(767.181076, 332.978055)"><path style="stroke:none" d="M 11.3125 -11.3125 L 11.3125 -90.46875 L 33.921875 -90.46875 L 33.921875 -22.609375 L 79.15625 -22.609375 L 79.15625 -11.3125 Z M 11.3125 -11.3125 "/></g></g><g style="fill:#4d2908;fill-opacity:1;"><g transform="translate(578.90882, 264.180647)"><path style="stroke:none" d="M 37.796875 -30.234375 L 45.34375 -30.234375 L 45.34375 -22.671875 L 22.671875 -22.671875 L 22.671875 -30.234375 L 15.109375 -30.234375 L 15.109375 -37.796875 L 7.5625 -37.796875 L 7.5625 -45.34375 L 30.234375 -45.34375 L 30.234375 -37.796875 L 37.796875 -37.796875 Z M 0 -37.796875 L 7.5625 -37.796875 L 7.5625 -30.234375 L 0 -30.234375 Z M 52.90625 -37.796875 L 52.90625 -30.234375 L 45.34375 -30.234375 L 45.34375 -37.796875 Z M 52.90625 -37.796875 "/></g></g></g></svg>